<svg width="20" height="20" viewBox="0 0 20 20" fill="none" xmlns="http://www.w3.org/2000/svg">
<circle cx="9.945" cy="9.945" r="9.945" fill="black"/>
<path opacity="0.2" d="M19.9457 10.0002C19.9457 15.494 15.4923 19.9476 9.99855 19.9476C4.50477 19.9476 0.051239 15.494 0.051239 10.0002C0.051239 4.50645 4.50477 0.0529175 9.99855 0.0529175C15.4922 0.0529175 19.9457 4.50645 19.9457 10.0002Z" fill="#505050"/>
<path d="M5 10.8361C5 9.90764 5.2487 9.08086 5.74609 8.35576C6.24349 7.63067 6.79063 7.02053 7.3875 6.52535C7.98438 6.03016 8.53151 5.65214 9.02891 5.39128L9.775 5V6.75083C9.775 7.07801 9.89935 7.33666 10.148 7.52677C10.3967 7.71689 10.6753 7.81194 10.9837 7.81194C11.1528 7.81194 11.3144 7.781 11.4686 7.7191C11.6228 7.6572 11.7646 7.55551 11.8939 7.41403L12.1625 7.12222C12.8788 7.49361 13.4557 8.00869 13.8934 8.66747C14.3311 9.32624 14.55 10.0491 14.55 10.8361C14.55 11.6143 14.3361 12.3239 13.9084 12.965C13.4806 13.6061 12.9185 14.1123 12.2222 14.4837C12.3913 14.2715 12.5231 14.0393 12.6176 13.7873C12.7121 13.5353 12.7594 13.2678 12.7594 12.9849C12.7594 12.6312 12.6848 12.2974 12.5355 11.9834C12.3863 11.6695 12.1724 11.3888 11.8939 11.1412L9.775 9.2975L7.67102 11.1412C7.38253 11.3976 7.16367 11.6806 7.01445 11.9901C6.86523 12.2996 6.79063 12.6312 6.79063 12.9849C6.79063 13.2678 6.83788 13.5353 6.93238 13.7873C7.02689 14.0393 7.1587 14.2715 7.32781 14.4837C6.63146 14.1123 6.0694 13.6061 5.64164 12.965C5.21388 12.3239 5 11.6143 5 10.8361ZM9.775 10.7831L11.0434 11.884C11.2125 12.0343 11.3418 12.2023 11.4313 12.388C11.5209 12.5737 11.5656 12.7726 11.5656 12.9849C11.5656 13.4181 11.3915 13.7873 11.0434 14.0924C10.6952 14.3975 10.2724 14.55 9.775 14.55C9.2776 14.55 8.85482 14.3975 8.50664 14.0924C8.15846 13.7873 7.98438 13.4181 7.98438 12.9849C7.98438 12.7815 8.02914 12.5847 8.11867 12.3946C8.2082 12.2045 8.33753 12.0343 8.50664 11.884L9.775 10.7831Z" fill="#F3F3F3"/>
</svg>
