<svg width="24" height="24" viewBox="0 0 24 24" fill="none" xmlns="http://www.w3.org/2000/svg">
<path fill-rule="evenodd" clip-rule="evenodd" d="M16.0974 4.04147C16.1882 4.04148 16.2736 4.08464 16.3275 4.15776L18.8792 7.6225L16.0975 8.54635L13.3154 7.62249L15.8674 4.15774C15.9212 4.08463 16.0066 4.04147 16.0974 4.04147ZM13.3074 8.37249L15.8674 11.848C15.9212 11.9211 16.0066 11.9643 16.0974 11.9643C16.1882 11.9643 16.2736 11.9211 16.3275 11.848L18.8871 8.37252L16.21 9.26162C16.137 9.28588 16.058 9.28588 15.9849 9.26162L13.3074 8.37249Z" fill="#427ECA"/>
<path d="M23 15.97C23 19.84 19.87 22.97 16 22.97L17.05 21.22M1 7.96997C1 4.09997 4.13 0.969971 8 0.969971L6.95 2.71997M6.62 15.33H9.43C10.06 15.33 10.56 14.82 10.56 14.2C10.56 13.63 10.05 13.07 9.43 13.07H6.62V15.33ZM6.62 15.33H9.84C10.55 15.33 11.13 15.83 11.13 16.46C11.13 17.08 10.55 17.59 9.84 17.59H6.62V15.33ZM8.42 17.58V18.7M8.42 11.95V13.07M14.85 15.33C14.85 18.74 12.09 21.5 8.68 21.5C5.27 21.5 2.51 18.74 2.51 15.33C2.51 11.92 5.27 9.15997 8.68 9.15997C8.84 9.15997 8.99 9.16999 9.16 9.17999C12.19 9.40999 14.61 11.83 14.84 14.86C14.84 15.01 14.85 15.16 14.85 15.33ZM21.5 8.66998C21.5 12.08 18.74 14.84 15.33 14.84H14.84C14.61 11.81 12.19 9.38997 9.16 9.15997V8.66998C9.16 5.25998 11.92 2.5 15.33 2.5C18.74 2.5 21.5 5.25998 21.5 8.66998Z" stroke="#427ECA" stroke-width="1.5" stroke-miterlimit="10" stroke-linecap="round" stroke-linejoin="round"/>
</svg>
